<?xml version="1.0" encoding="utf-8"?>
<!-- Generator: Adobe Illustrator 19.0.0, SVG Export Plug-In . SVG Version: 6.00 Build 0)  -->
<svg version="1.1" id="Layer_1" xmlns="http://www.w3.org/2000/svg" xmlns:xlink="http://www.w3.org/1999/xlink" x="0px" y="0px"
	 viewBox="0 0 432.0822449 75.6197739" style="enable-background:new 0 0 432.0822449 75.6197739;" xml:space="preserve">
<metadata><?xpacket begin="﻿" id="W5M0MpCehiHzreSzNTczkc9d"?>
<x:xmpmeta xmlns:x="adobe:ns:meta/" x:xmptk="Adobe XMP Core 5.6-c067 79.157747, 2015/03/30-23:40:42        ">
   <rdf:RDF xmlns:rdf="http://www.w3.org/1999/02/22-rdf-syntax-ns#">
      <rdf:Description rdf:about=""/>
   </rdf:RDF>
</x:xmpmeta>
                                                                                                    
                                                                                                    
                                                                                                    
                                                                                                    
                                                                                                    
                                                                                                    
                                                                                                    
                                                                                                    
                                                                                                    
                                                                                                    
                                                                                                    
                                                                                                    
                                                                                                    
                                                                                                    
                                                                                                    
                                                                                                    
                                                                                                    
                                                                                                    
                                                                                                    
                                                                                                    
                           
<?xpacket end="w"?></metadata>
<style type="text/css">
	.st0{fill:#FFFFFF;}
	.st1{fill:#B0DEC8;}
	.st2{fill:#8AA492;}
</style>
<g id="XMLID_1432_">
	<g id="XMLID_1442_">
		<path id="XMLID_1464_" class="st0" d="M130.1819916,55.7552605c-1.2486267,0-2.3726425-0.2125854-3.3720398-0.6353111
			c-1.0018387-0.4251709-1.8497391-1.0140572-2.548584-1.7617722v13.9426727h-9.8962173V31.4521027
			c0-2.194273-0.1637192-4.0415668-0.4862595-5.5369949c-0.3274307-1.4978733-1.1142426-2.9688663-2.3628769-4.4178677
			l5.5492172-2.7171841l3.2229919,2.7929325c1.9474716-0.948082,3.4844437-1.5980568,4.6084595-1.9474773
			c1.1264572-0.3494225,2.6365433-0.5253563,4.5351562-0.5253563c4.1490784,0,7.3720703,1.2877312,9.6714172,3.8607483
			c2.2968903,2.5730171,3.4477844,7.1839218,3.4477844,13.8302689
			C142.5510406,49.4338989,138.4288483,55.7552605,130.1819916,55.7552605z M126.883255,25.8466892
			c-0.7477112,0-1.2999496,0.0733051-1.6493683,0.224802c-0.3494263,0.1490555-0.674408,0.3494225-0.9725189,0.5986614v14.0941677
			c0,2.797821,0.298111,4.7599602,0.8992157,5.883976c0.5986557,1.1240158,1.4978714,1.6860237,2.6976318,1.6860237
			c1.5491791,0,2.6121063-0.7868118,3.1863403-2.3604317c0.5742188-1.5736237,0.8625641-4.7599602,0.8625641-9.5590172
			c0-4.0953217-0.4251709-6.8833675-1.2755127-8.3568058C129.7812653,26.5846291,128.5326233,25.8466892,126.883255,25.8466892z"/>
		<path id="XMLID_1461_" class="st0" d="M162.1162415,55.6819572c-5.4979095,0-9.3953094-1.5491867-11.6946411-4.6475601
			c-2.2969055-3.0983696-3.4477997-7.6481895-3.4477997-13.6445618c0-5.8473225,1.1508942-10.3556004,3.4477997-13.5297203
			c2.2993317-3.1741219,6.2236176-4.7599602,11.7703857-4.7599602c5.346405,0,9.1827087,1.5858383,11.506485,4.7599602
			c2.3237915,3.1741199,3.4868927,7.6823978,3.4868927,13.5297203c0,5.898632-1.1508942,10.4215736-3.4502258,13.5688133
			C171.435791,54.1058922,167.5628204,55.6819572,162.1162415,55.6819572z M162.1162415,25.7709408
			c-1.8986053,0-3.1105957,0.8747768-3.6359558,2.6243305c-0.5229034,1.7495537-0.7868042,4.7233047-0.7868042,8.921257
			c0,3.398922,0.1515045,6.1723099,0.4496002,8.3201561c0.3005524,2.1478424,1.624939,3.2229881,3.9731598,3.2229881
			c1.9499207,0,3.174118-0.8625603,3.6725922-2.5852318c0.5009155-1.7251205,0.7501526-4.7110901,0.7501526-8.9579124
			c0-3.4502373-0.1368256-6.2358398-0.4105072-8.359251C165.8523712,26.833868,164.5157623,25.7709408,162.1162415,25.7709408z"/>
		<path id="XMLID_1459_" class="st0" d="M214.7983246,54.8560486l-9.0140991,0.024437L200.78479,36.2267227l-3.7385712,18.6122208
			l-8.7697601,0.0171051l-7.9462891-34.9324303h11.0959778l2.2480316,20.9140091l4.7233124-20.9140091h7.4966888
			l4.5718079,20.9140091l2.3237762-20.9140091h9.5956726L214.7983246,54.8560486z"/>
		<path id="XMLID_1456_" class="st0" d="M236.9039459,39.4888077c0,2.8027077,0.6157684,4.9896507,1.8448486,6.5632706
			c1.2315369,1.5711784,3.1496887,2.3579903,5.7593689,2.3579903c2.5094757,0,4.4789429-0.2956657,5.9108429-0.8894386
			c1.4294586-0.5913315,2.6463318-1.2193108,3.6530457-1.8839455l0.0733185,7.4209404
			c-0.950531,0.5839996-2.2236023,1.165554-3.8216553,1.7495537c-1.6005096,0.5815544-3.9731445,0.8747787-7.1228333,0.8747787
			c-5.9963837,0-10.2823029-1.6591454-12.8553162-4.9749908c-2.5754547-3.3182869-3.8607483-7.7923546-3.8607483-13.4295349
			c0-5.9841576,1.2852936-10.5095387,3.8607483-13.5761452c2.5730133-3.0666065,6.2333984-4.6011314,10.9811401-4.6011314
			c5.6982727,0,9.5834503,1.6371536,11.6579895,4.9090137c2.0720978,3.2743053,3.1105804,8.4325542,3.1105804,15.4796391
			H236.9039459z M241.3267059,25.6951904c-1.7495575,0-2.9224396,0.7501583-3.5235443,2.2504749
			c-0.5986633,1.4978714-0.8992157,3.398922-0.8992157,5.6958218h8.7722015c0-2.5974503-0.2394562-4.5718079-0.713501-5.9206257
			S243.2766266,25.6951904,241.3267059,25.6951904z"/>
		<path id="XMLID_1454_" class="st0" d="M272.4375,28.9206257v25.9354229h-9.8962402V32.9548607v-1.2755108
			c0-2.6487675-0.2369995-4.686655-0.7110596-6.1112213c-0.4764709-1.4245663-1.1875305-2.6634274-2.1380615-3.7141361
			l5.5491943-2.7733841l5.6200867,4.8919067c1.2999573-1.9572506,2.7733765-3.2107716,4.42276-3.7630062
			c1.649353-0.5522327,3.1985474-0.9260902,4.6475525-1.1289005v8.3959026
			c-0.2980957-0.0439835-0.6255493-0.0757484-0.9725037-0.0977402c-0.3518677-0.0219917-0.6499939-0.0342102-0.899231-0.0342102
			c-1.1508789,0-2.1502686,0.1026287-3.0006104,0.3005524C274.2090454,27.84548,273.3367004,28.2706509,272.4375,28.9206257z"/>
		<path id="XMLID_1451_" class="st0" d="M302.4855957,55.6819572c-2.4483948,0-4.1490784-0.5058098-5.097168-1.5125351
			c-0.950531-1.0067253-1.7006836-2.0525475-2.2504578-3.135025l-4.7208862,3.8216515h-3.7483215V7.4055128h9.8937683v13.1192102
			c0.5009155-0.3005524,1.1508789-0.6133213,1.9499207-0.9383087c0.7990112-0.3249874,1.8985901-0.4862595,3.2987366-0.4862595
			c3.6970215,0,6.7954102,1.3097229,9.295105,3.9267216c2.4972839,2.6194439,3.7483521,7.1203918,3.7483521,13.50284
			c0,6.0867882-0.9871826,10.7978745-2.9615173,14.1405983C309.9187622,54.0105934,306.7837219,55.6819572,302.4855957,55.6819572z
			 M299.1868591,25.9199944c-0.7501526,0-1.3243713,0.1001835-1.7251282,0.3005524
			c-0.3982849,0.1979237-0.698822,0.3738556-0.8992004,0.5229111v14.121048c0,2.5901222,0.3127747,4.4447479,0.9382935,5.5638733
			c0.6231079,1.1215706,1.4343567,1.6811371,2.4361877,1.6811371c1.4978638,0,2.5852356-0.7574883,3.2596436-2.2773514
			s1.0116272-4.6206818,1.0116272-9.3024483c0-4.283474-0.4374084-7.1228333-1.3097229-8.5156345
			C302.0237732,26.6188374,300.7849121,25.9199944,299.1868591,25.9199944z"/>
		<path id="XMLID_1448_" class="st0" d="M330.5837708,39.4888077c0,2.8027077,0.6157837,4.9896507,1.8448792,6.5632706
			c1.2315063,1.5711784,3.1496582,2.3579903,5.7593384,2.3579903c2.509491,0,4.4789429-0.2956657,5.9108582-0.8894386
			c1.4294434-0.5913315,2.6463318-1.2193108,3.6530457-1.8839455l0.0733032,7.4209404
			c-0.950531,0.5839996-2.2236023,1.165554-3.8216553,1.7495537c-1.6004944,0.5815544-3.9731445,0.8747787-7.1228333,0.8747787
			c-5.9963684,0-10.2822876-1.6591454-12.8553162-4.9749908c-2.5754395-3.3182869-3.8607483-7.7923546-3.8607483-13.4295349
			c0-5.9841576,1.2853088-10.5095387,3.8607483-13.5761452c2.5730286-3.0666065,6.2333984-4.6011314,10.9811401-4.6011314
			c5.6982727,0,9.5834656,1.6371536,11.6579895,4.9090137c2.072113,3.2743053,3.1105957,8.4325542,3.1105957,15.4796391H330.5837708
			z M335.0065308,25.6951904c-1.7495422,0-2.9224243,0.7501583-3.5235291,2.2504749
			c-0.5986633,1.4978714-0.899231,3.398922-0.899231,5.6958218h8.7722168c0-2.5974503-0.2394714-4.5718079-0.713501-5.9206257
			S336.9564514,25.6951904,335.0065308,25.6951904z"/>
		<path id="XMLID_1445_" class="st0" d="M378.9335327,55.6624069l-5.8473206-4.8528137
			c-0.8503418,1.094696-1.9499207,2.1771698-3.2987366,3.2474289c-1.3488159,1.0702553-3.2498779,1.6053848-5.6982727,1.6053848
			c-3.1472473,0-5.5467529-0.8992119-7.1961365-2.6951904c-1.6493835-1.7984238-2.4728394-4.219944-2.4728394-7.2694473
			c0-3.1936684,0.8405762-5.7300301,2.521698-7.6017609c1.6811523-1.8741722,4.4545288-3.408699,8.3201599-4.6084595
			l6.6243591-2.0965347c0-2.1991596-0.4154053-3.6579342-1.2437439-4.3836575
			c-0.83078-0.72328-2.3970947-1.0873623-4.7086487-1.0873623c-2.2089233,0-4.0317993,0.2687855-5.4612427,0.8014717
			c-1.4318848,0.5351276-2.6512146,1.0922489-3.6530457,1.6738052v-7.2718887
			c1.4490051-0.4496059,3.1350098-0.8992119,5.058075-1.3488178c1.9230347-0.4496059,3.9853516-0.6744099,6.1845093-0.6744099
			c4.9969788,0,8.4960938,0.8747768,10.494873,2.6243305c1.9988098,1.7495537,2.9981995,4.9969807,2.9981995,9.7471657v10.4973202
			v1.7984238c0,1.9499245,0.1881409,3.7239113,0.5620117,5.3244133c0.3762817,1.6004982,1.1875305,2.9737511,2.4361877,4.1222
			L378.9335327,55.6624069z M368.9615784,38.2206268c-1.6982422,0.5522346-2.8735962,1.3683662-3.5211182,2.4483986
			c-0.6499634,1.0800323-0.9749451,2.3482132-0.9749451,3.8045464c0,1.2070923,0.3371887,2.1600647,1.0115967,2.8637924
			c0.674408,0.7012901,1.4612122,1.053154,2.3604431,1.053154c0.6499634,0,1.3121643-0.2125854,1.9865723-0.6401978
			c0.674408-0.4251709,1.1631165-0.9554138,1.4612122-1.5833969c0.3005676-0.6255379,0.4765015-1.2046509,0.5253601-1.7300034
			c0.0488586-0.5278015,0.0757446-1.6200485,0.0757446-3.2791939v-3.841198L368.9615784,38.2206268z"/>
		<path id="XMLID_1443_" class="st0" d="M415.6643982,54.8560486h-9.8937988V31.2566223
			c0-1.7544422-0.1881409-2.9810829-0.5619812-3.6823711c-0.3763123-0.7012882-1.1631165-1.053154-2.3628845-1.053154
			c-0.950531,0-1.7128906,0.1881504-2.2846985,0.5644512c-0.5766602,0.3763008-0.989624,0.6890697-1.2388611,0.9383087v26.8321915
			h-9.8937683v-22.013588v-1.277956c0-1.9523659-0.1881409-3.7434597-0.5620117-5.3708382
			c-0.3762817-1.6273766-1.1630859-3.093483-2.362854-4.3958759l5.6224976-2.7733841l4.8723755,4.1979523
			c1.0995789-0.948082,2.3995361-1.8863907,3.8998413-2.8100376c1.4978638-0.9260902,3.2474365-1.3879147,5.2462158-1.3879147
			c2.3482056,0,4.0220032,0.3640842,5.0214233,1.0873623c0.9993896,0.7257233,1.8497314,1.7129021,2.5510254,2.9615345
			c0.9969482-0.9163151,2.2113647-1.8204155,3.6334839-2.7122955c1.4245605-0.8894386,3.1618958-1.3366013,5.2120056-1.3366013
			c3.3476257,0,5.7715759,0.8894386,7.2694397,2.668314c1.5003357,1.776432,2.2504883,4.9701004,2.2504883,9.5761185v23.5872097
			h-9.8962097V31.2566223c0-1.7544422-0.1881714-2.9810829-0.5693359-3.6823711
			c-0.3787537-0.7012882-1.175354-1.053154-2.3873291-1.053154c-1.0115967,0-1.7959595,0.2248039-2.350647,0.6768532
			c-0.5571289,0.4520493-0.9602966,0.8503418-1.2144165,1.2022076V54.8560486z"/>
	</g>
	<g id="XMLID_1433_">
		<polygon id="XMLID_1441_" class="st1" points="14.2459879,0.0002419 37.0871773,0.0002419 22.84128,18.9051857 
			0.0000908,18.9051857 		"/>
		<polygon id="XMLID_1440_" class="st2" points="22.84128,18.9051857 37.0871773,0.0002419 37.0871773,18.9051857 		"/>
		<polygon id="XMLID_1439_" class="st1" points="22.8414307,18.9051857 45.682621,18.9051857 31.4367237,37.8101311 
			8.5955334,37.8101311 		"/>
		<polygon id="XMLID_1438_" class="st2" points="31.4367237,37.8101311 45.682621,18.9051857 45.682621,37.8101311 		"/>
		<polygon id="XMLID_1437_" class="st1" points="31.4369621,37.8101311 54.2781525,37.8101311 40.0322571,56.7150726 
			17.1910648,56.7150726 		"/>
		<polygon id="XMLID_1436_" class="st2" points="40.0322571,56.7150726 54.2781525,37.8101311 54.2781525,56.7150726 
			40.0322571,75.620018 		"/>
		<polygon id="XMLID_1435_" class="st1" points="68.5240479,18.9051857 91.365242,18.9051857 77.119339,37.8101311 
			54.2781525,37.8101311 		"/>
		<polygon id="XMLID_1434_" class="st2" points="77.119339,37.8101311 91.365242,18.9051857 91.365242,37.8101311 
			77.119339,56.7150726 		"/>
	</g>
</g>
</svg>
