<svg xmlns="http://www.w3.org/2000/svg" viewBox="0 0 131.98 20.52"><defs><style>.cls-1{fill:#fff;}</style></defs><title>Recurso 5</title><g id="Capa_2" data-name="Capa 2"><g id="Layer_4" data-name="Layer 4"><path class="cls-1" d="M0,.42A37.29,37.29,0,0,1,6.16,0C9,0,11,.54,12.31,1.61a5.89,5.89,0,0,1,2.15,4.66,6.44,6.44,0,0,1-1.85,4.78,9.34,9.34,0,0,1-6.55,2.12,11.46,11.46,0,0,1-1.55-.09v7.2H0ZM4.51,9.56A7,7,0,0,0,6,9.68C8.46,9.68,10,8.46,10,6.4c0-1.85-1.29-3-3.56-3a7.76,7.76,0,0,0-1.88.18Z"/><path class="cls-1" d="M29.68,13.1c0,4.62-2.8,7.43-6.92,7.43s-6.63-3.16-6.63-7.18C16.12,9.12,18.82,6,23,6,27.32,6,29.68,9.2,29.68,13.1Zm-10.19.19c0,2.76,1.3,4.71,3.43,4.71s3.39-2.05,3.39-4.79c0-2.53-1.21-4.71-3.41-4.71S19.49,10.54,19.49,13.28Z"/><path class="cls-1" d="M33.91,20.29,30.56,6.19H34L35,12c.31,1.67.61,3.49.84,4.92h0c.23-1.53.56-3.22.92-5L38,6.19h3.39l1.13,5.94c.31,1.65.54,3.16.75,4.73h0c.21-1.57.52-3.22.82-4.9l1.15-5.77h3.24l-3.64,14.1H41.46l-1.19-6.07c-.27-1.42-.5-2.74-.67-4.35h0c-.25,1.59-.48,2.93-.82,4.35L37.4,20.29Z"/><path class="cls-1" d="M58.59,14.33H53.41v3.35h5.8v2.62h-9V6.19h8.7V8.81h-5.5v2.93h5.19Z"/><path class="cls-1" d="M61.38,6.38a28,28,0,0,1,4.25-.29c2.09,0,3.56.31,4.56,1.11a3.58,3.58,0,0,1,1.3,2.95A3.74,3.74,0,0,1,69,13.62v.06a3.56,3.56,0,0,1,1.88,2.64c.44,1.59.88,3.43,1.15,4H68.76a17.63,17.63,0,0,1-1-3.28c-.38-1.76-1-2.24-2.28-2.26h-1v5.54H61.38Zm3.16,6.07h1.26c1.59,0,2.53-.8,2.53-2s-.88-1.95-2.34-2a8,8,0,0,0-1.44.1Z"/><path class="cls-1" d="M74.37.42A36.29,36.29,0,0,1,80.26,0C83,0,84.74.27,86.21,1.14a4.38,4.38,0,0,1,2.42,3.95,4.55,4.55,0,0,1-3.32,4.3v.06a5,5,0,0,1,4,5,5.37,5.37,0,0,1-2.09,4.27c-1.46,1.17-3.92,1.82-7.92,1.82a35.24,35.24,0,0,1-4.93-.3Zm4.51,7.71h1.49c2.39,0,3.68-1,3.68-2.48s-1.17-2.33-3.23-2.33a12.44,12.44,0,0,0-1.94.12Zm0,8.94a14.37,14.37,0,0,0,1.76.06c2.06,0,3.89-.78,3.89-2.9s-1.82-2.84-4.09-2.84H78.89Z"/><path class="cls-1" d="M100.22,14.33H95v3.35h5.8v2.62h-9V6.19h8.7V8.81H95v2.93h5.19Z"/><path class="cls-1" d="M106.29,16.67l-1,3.62H102l4.31-14.1h4.18l4.37,14.1h-3.43l-1.09-3.62Zm3.58-2.38-.88-3c-.25-.84-.5-1.88-.71-2.72h0c-.21.84-.42,1.9-.65,2.72l-.84,3Z"/><path class="cls-1" d="M128.66,14.9c-.06-1.69-.13-3.74-.13-5.8h-.06c-.44,1.8-1,3.81-1.57,5.46l-1.72,5.5h-2.49l-1.51-5.46c-.46-1.65-.94-3.66-1.28-5.5h0c-.08,1.9-.15,4.08-.25,5.84l-.25,5.36h-2.95l.9-14.1h4.25l1.38,4.71c.44,1.63.88,3.39,1.19,5h.06c.4-1.63.88-3.49,1.34-5.06L127,6.19h4.16l.77,14.1h-3.12Z"/></g></g></svg>